<?xml version="1.0" encoding="UTF-8" ?>
<!DOCTYPE svg PUBLIC "-//W3C//DTD SVG 1.1//EN" "http://www.w3.org/Graphics/SVG/1.1/DTD/svg11.dtd">
<svg width="642pt" height="559pt" viewBox="0 0 642 559" version="1.1" xmlns="http://www.w3.org/2000/svg">
<path fill="#ffffff" d=" M 0.00 0.00 L 642.00 0.00 L 642.00 559.00 L 0.00 559.00 L 0.00 0.00 Z" />
<path fill="#23120d" d=" M 369.38 19.91 C 372.07 18.43 375.93 18.44 378.62 19.91 C 384.05 20.17 389.49 19.83 394.92 20.06 C 395.35 20.27 396.20 20.70 396.63 20.91 C 399.60 21.36 402.98 20.13 405.63 21.91 C 408.27 22.23 411.20 21.35 413.60 22.81 C 415.27 22.99 417.03 22.92 418.58 23.72 C 419.94 23.99 421.36 24.11 422.60 24.80 C 424.28 25.00 426.07 24.86 427.59 25.76 C 428.05 25.88 428.97 26.12 429.43 26.24 C 431.11 26.84 432.86 27.17 434.57 27.71 C 435.89 27.95 437.22 28.23 438.52 28.62 C 439.49 28.95 440.45 29.33 441.41 29.74 C 442.75 30.35 444.13 30.89 445.55 31.33 C 446.82 31.81 448.12 32.21 449.40 32.72 C 451.71 33.75 454.14 34.53 456.43 35.66 C 456.92 35.93 457.90 36.46 458.40 36.73 C 459.47 37.23 460.53 37.76 461.60 38.28 C 463.20 39.09 464.80 39.89 466.42 40.67 C 468.67 42.16 470.93 43.62 473.42 44.68 C 482.33 50.21 490.70 56.56 498.76 63.24 C 503.90 68.44 509.12 73.56 514.25 78.77 C 519.84 85.85 525.63 92.84 530.29 100.60 C 531.15 102.35 532.34 103.90 533.32 105.59 C 534.11 107.19 534.90 108.80 535.70 110.40 C 535.95 110.90 536.46 111.89 536.71 112.39 C 537.35 113.73 538.02 115.07 538.71 116.40 C 539.36 117.75 540.05 119.09 540.78 120.41 C 541.62 122.46 542.35 124.55 543.29 126.57 C 543.66 127.55 544.00 128.54 544.31 129.54 C 544.82 130.86 545.24 132.21 545.78 133.53 C 545.90 134.00 546.13 134.95 546.25 135.43 C 546.83 137.12 547.18 138.87 547.75 140.57 C 547.87 141.03 548.11 141.95 548.23 142.41 C 549.13 143.93 548.99 145.71 549.19 147.40 C 550.17 148.89 549.98 150.70 550.19 152.40 C 551.36 154.18 550.92 156.38 551.14 158.38 C 552.71 160.74 551.73 163.72 552.09 166.37 C 553.46 168.09 552.87 170.38 553.15 172.39 C 553.93 174.00 554.12 175.80 554.67 177.50 C 554.94 178.51 555.29 179.51 555.72 180.48 C 555.96 181.50 556.28 182.50 556.66 183.49 C 557.10 184.88 557.64 186.25 558.22 187.59 C 559.10 189.17 559.87 190.80 560.68 192.42 C 564.94 199.29 569.62 205.91 575.16 211.83 C 577.59 215.41 580.64 218.58 582.72 222.39 C 583.48 223.85 584.52 225.15 585.36 226.58 C 586.34 228.48 586.97 230.54 587.81 232.52 C 587.91 232.99 588.12 233.95 588.22 234.42 C 589.15 235.92 588.97 237.71 589.19 239.40 C 591.04 244.09 589.44 249.43 590.09 254.38 C 592.14 258.64 590.39 263.77 591.10 268.38 C 592.26 269.81 591.95 271.70 592.19 273.40 C 593.36 275.04 592.94 277.09 593.02 278.96 C 592.92 288.96 593.11 298.96 592.94 308.96 C 592.73 309.37 592.31 310.21 592.09 310.62 C 591.84 315.74 592.16 320.86 591.94 325.98 C 591.73 326.39 591.32 327.21 591.11 327.62 C 590.84 329.95 591.52 332.51 590.19 334.60 C 589.96 336.29 590.21 338.15 589.14 339.62 C 588.93 341.61 589.33 343.78 588.23 345.58 C 588.11 346.05 587.87 346.97 587.75 347.43 C 587.02 349.79 586.62 352.27 585.31 354.42 C 584.62 355.74 583.98 357.10 583.37 358.46 C 580.09 363.38 575.28 367.06 570.42 370.32 C 568.64 371.14 567.08 372.34 565.40 373.33 C 564.46 373.78 563.53 374.24 562.61 374.71 C 562.11 374.95 561.10 375.44 560.59 375.68 C 558.39 376.66 556.44 378.05 554.43 379.35 C 553.92 379.58 552.91 380.04 552.40 380.28 C 550.81 381.12 549.19 381.88 547.60 382.70 C 540.79 386.50 533.66 390.65 529.63 397.56 C 529.38 398.07 528.89 399.08 528.65 399.59 C 528.30 400.55 527.98 401.52 527.70 402.51 C 527.29 403.49 526.94 404.48 526.67 405.50 C 526.12 407.19 525.92 408.99 525.16 410.61 C 524.92 412.62 525.35 414.81 524.19 416.60 C 523.96 418.29 524.21 420.15 523.14 421.62 C 522.95 423.61 523.26 425.73 522.29 427.58 C 522.01 428.93 521.85 430.32 521.23 431.58 C 521.12 432.06 520.90 433.01 520.79 433.48 C 520.11 435.19 519.49 436.92 518.76 438.61 C 518.27 439.53 517.80 440.48 517.37 441.44 C 516.06 443.71 513.92 445.34 512.59 447.59 C 510.81 448.76 509.23 450.21 507.45 451.39 C 506.95 451.62 505.93 452.09 505.42 452.33 C 504.46 452.71 503.49 453.06 502.51 453.36 C 501.23 453.80 499.89 454.02 498.58 454.28 C 494.81 455.82 490.58 454.58 486.62 455.09 C 484.80 456.33 482.47 455.85 480.48 456.59 C 478.09 457.42 475.83 458.53 473.59 459.66 C 464.32 465.44 455.81 472.38 448.25 480.25 C 440.23 488.79 430.60 495.64 420.64 501.73 C 418.40 502.65 416.42 504.03 414.40 505.33 C 413.46 505.79 412.54 506.28 411.62 506.78 C 409.25 507.72 406.81 508.51 404.57 509.75 C 402.54 510.64 400.43 511.35 398.43 512.31 C 396.83 512.83 395.18 513.15 393.60 513.70 C 391.73 514.73 389.63 515.07 387.61 515.67 C 386.06 516.59 384.35 517.09 382.57 517.29 C 381.29 517.82 379.92 518.01 378.58 518.30 C 377.29 518.81 375.92 519.01 374.58 519.30 C 373.29 519.80 371.92 520.01 370.58 520.29 C 369.03 521.08 367.27 520.99 365.60 521.19 C 364.10 522.16 362.29 521.98 360.60 522.19 C 359.10 523.16 357.29 522.98 355.60 523.19 C 354.10 524.16 352.29 523.98 350.60 524.19 C 348.51 525.53 345.94 524.84 343.62 525.11 C 342.31 526.24 340.59 525.98 339.01 526.03 C 328.88 526.02 318.74 525.91 308.61 526.08 C 307.40 527.32 305.59 527.32 304.38 526.08 C 300.43 525.47 295.98 527.07 292.37 525.09 C 289.73 524.81 286.87 525.55 284.42 524.28 C 283.06 524.01 281.66 523.87 280.42 523.23 C 279.95 523.12 279.00 522.90 278.53 522.79 C 277.23 522.25 275.90 521.82 274.60 521.32 C 272.60 520.29 270.58 519.32 268.60 518.29 C 268.10 518.04 267.10 517.54 266.60 517.29 C 265.25 516.64 263.91 515.99 262.58 515.34 C 254.08 510.08 246.31 503.75 238.74 497.28 C 230.83 488.87 221.86 481.38 214.76 472.26 C 206.81 463.84 199.79 454.59 192.62 445.48 C 179.59 429.37 167.50 412.55 155.01 396.00 C 148.32 386.64 141.93 377.07 135.70 367.40 C 134.82 365.66 133.67 364.09 132.72 362.40 C 131.83 360.66 130.65 359.10 129.72 357.39 C 128.84 355.65 127.65 354.10 126.66 352.43 C 126.43 351.92 125.96 350.90 125.73 350.39 C 125.25 349.46 124.77 348.54 124.29 347.63 C 123.63 346.27 122.96 344.93 122.28 343.60 C 121.77 342.52 121.23 341.46 120.72 340.40 C 120.46 339.90 119.96 338.90 119.70 338.41 C 119.02 337.07 118.36 335.73 117.71 334.39 C 117.45 333.90 116.91 332.91 116.65 332.42 C 116.19 331.13 115.79 329.82 115.34 328.54 C 114.90 327.11 114.33 325.74 113.72 324.39 C 113.22 323.11 112.79 321.82 112.31 320.54 C 111.99 319.49 111.62 318.46 111.22 317.44 C 111.11 316.97 110.90 316.03 110.80 315.56 C 110.37 314.56 109.97 313.55 109.60 312.53 C 109.22 311.23 108.96 309.90 108.71 308.58 C 108.17 307.29 107.98 305.92 107.71 304.58 C 106.91 303.03 107.00 301.28 106.80 299.60 C 105.64 297.81 106.08 295.62 105.86 293.62 C 104.78 292.15 105.03 290.29 104.81 288.60 C 103.46 286.52 104.16 283.94 103.89 281.62 C 102.75 280.31 103.01 278.57 102.97 276.99 C 102.98 273.20 103.08 269.41 102.91 265.62 C 101.54 264.02 102.09 261.87 101.98 259.97 C 102.08 253.01 101.88 246.04 102.06 239.08 C 102.27 238.66 102.70 237.80 102.91 237.38 C 103.17 230.92 102.82 224.45 103.07 218.00 C 103.26 217.60 103.63 216.80 103.81 216.40 C 104.06 214.70 103.73 212.80 104.91 211.37 C 105.35 208.40 104.14 205.02 105.91 202.37 C 106.29 199.72 105.23 196.69 106.91 194.38 C 107.28 191.72 106.23 188.70 107.91 186.38 C 108.23 183.73 107.34 180.80 108.81 178.40 C 109.01 176.71 108.84 174.90 109.80 173.40 C 110.01 171.71 109.84 169.89 110.81 168.40 C 111.00 166.71 110.86 164.92 111.77 163.41 C 111.89 162.95 112.11 162.02 112.22 161.56 C 112.63 160.54 112.99 159.51 113.31 158.46 C 114.01 156.46 114.66 154.43 115.69 152.57 C 116.36 151.24 117.02 149.91 117.73 148.60 C 117.96 148.09 118.42 147.07 118.65 146.56 C 120.43 143.16 123.24 140.52 125.41 137.41 C 129.33 135.13 131.62 130.93 135.51 128.63 C 139.56 126.02 143.49 123.23 147.58 120.68 C 150.07 119.61 152.34 118.16 154.59 116.66 C 155.53 116.21 156.46 115.76 157.39 115.30 C 157.89 115.04 158.89 114.53 159.39 114.28 C 160.46 113.77 161.53 113.24 162.60 112.72 C 164.18 111.88 165.80 111.11 167.39 110.27 C 168.46 109.75 169.52 109.22 170.60 108.73 C 171.92 108.02 173.26 107.36 174.61 106.70 C 175.53 106.23 176.46 105.77 177.40 105.35 C 178.82 104.50 180.15 103.50 181.57 102.65 C 182.08 102.41 183.09 101.95 183.59 101.72 C 184.09 101.46 185.10 100.96 185.60 100.71 C 186.52 100.23 187.45 99.78 188.40 99.34 C 189.81 98.49 191.16 97.52 192.60 96.70 C 194.35 95.84 195.90 94.65 197.61 93.72 C 199.33 92.82 200.90 91.66 202.61 90.72 C 209.57 86.42 216.42 81.89 223.01 77.02 C 232.47 69.09 241.97 61.08 252.60 54.70 C 254.35 53.86 255.89 52.63 257.59 51.70 C 261.04 50.22 263.96 47.80 267.39 46.27 C 268.74 45.64 270.08 44.98 271.40 44.28 C 272.47 43.76 273.53 43.21 274.60 42.68 C 276.59 42.00 278.59 41.31 280.41 40.23 C 281.77 39.63 283.15 39.08 284.60 38.73 C 285.53 38.23 286.45 37.73 287.37 37.22 C 289.02 36.52 290.71 35.93 292.38 35.26 C 294.04 34.54 295.74 33.90 297.45 33.29 C 298.47 33.01 299.49 32.70 300.50 32.34 C 301.53 32.00 302.55 31.62 303.56 31.22 C 304.02 31.10 304.96 30.87 305.43 30.76 C 307.04 30.15 308.75 29.86 310.40 29.32 C 311.94 28.41 313.65 27.92 315.43 27.70 C 316.71 27.19 318.07 26.98 319.42 26.70 C 320.70 26.18 322.07 25.98 323.42 25.71 C 324.96 24.92 326.72 25.00 328.40 24.80 C 329.90 23.84 331.70 24.01 333.40 23.81 C 334.89 22.83 336.70 23.01 338.40 22.81 C 340.18 21.62 342.37 22.08 344.39 21.86 C 346.74 20.28 349.72 21.26 352.37 20.91 C 352.79 20.69 353.63 20.27 354.05 20.06 C 359.16 19.83 364.27 20.16 369.38 19.91 Z" />
<path fill="#754016" d=" M 330.98 38.25 C 349.51 35.57 368.30 36.39 386.96 36.62 C 407.17 37.42 427.76 39.64 446.54 47.62 C 461.92 54.07 475.44 64.20 487.77 75.28 C 505.47 90.78 520.48 109.88 528.99 131.96 C 533.82 144.43 536.48 157.69 537.08 171.04 C 537.78 180.95 536.89 191.22 540.22 200.76 C 542.01 205.98 546.55 209.70 551.60 211.61 C 550.18 212.06 548.91 212.86 548.13 214.15 C 543.01 221.37 538.99 229.44 532.70 235.77 C 523.52 245.16 512.56 252.58 501.38 259.35 C 489.31 266.55 476.59 272.81 463.13 276.96 C 455.91 279.32 447.85 278.28 441.04 281.98 C 427.21 289.23 417.20 301.50 406.09 312.10 C 392.52 324.00 377.29 333.95 361.30 342.30 C 335.06 355.79 306.78 366.23 277.29 369.33 C 266.34 369.97 255.06 370.64 244.41 367.46 C 240.21 366.20 235.79 366.30 231.46 366.53 C 228.36 362.29 225.64 357.77 222.20 353.80 C 210.81 341.12 202.88 325.83 195.40 310.64 C 185.82 290.97 178.44 270.18 174.46 248.64 C 172.55 239.68 171.90 230.54 170.43 221.52 C 169.80 214.06 169.11 206.56 169.80 199.07 C 170.24 194.62 170.58 190.15 170.70 185.68 C 171.43 182.94 172.20 180.20 172.61 177.40 C 174.36 163.81 177.88 150.50 182.38 137.57 C 183.90 132.38 185.95 127.09 185.48 121.59 C 182.86 121.30 180.22 121.56 177.64 122.01 C 180.31 120.26 183.47 118.67 186.76 119.33 C 188.03 120.51 186.95 122.53 187.03 124.03 C 185.75 132.51 183.36 140.77 180.96 148.99 C 172.75 175.50 172.26 203.74 174.95 231.15 C 178.67 262.32 186.92 293.30 202.08 320.92 C 209.45 334.55 218.83 347.36 231.08 356.99 C 234.07 359.28 237.29 361.56 241.07 362.29 C 244.57 362.08 243.96 358.00 243.50 355.57 C 241.16 347.11 236.05 339.76 231.03 332.68 C 233.04 332.58 235.51 332.88 236.65 330.80 C 241.50 323.97 246.13 316.97 251.20 310.29 C 259.72 299.58 269.32 289.57 280.66 281.82 C 294.69 272.24 310.17 264.93 326.17 259.33 C 341.22 254.30 357.03 250.56 373.00 251.66 C 381.08 252.25 389.30 252.84 397.26 250.89 C 395.12 246.17 391.71 242.25 388.12 238.58 C 383.05 232.60 377.94 226.63 372.34 221.12 C 366.83 213.82 359.06 207.90 350.00 205.91 C 341.64 204.07 333.00 204.41 324.50 204.76 C 319.11 204.01 313.37 204.09 308.42 201.58 C 303.57 198.95 303.29 190.82 308.71 188.69 C 314.82 186.86 321.32 187.80 327.58 188.14 C 334.66 189.25 341.83 190.49 349.01 189.95 C 351.69 189.58 355.23 188.90 356.06 185.87 C 358.37 178.79 354.12 171.62 349.23 166.75 C 340.98 158.88 330.32 152.23 318.49 152.79 C 315.68 151.47 312.35 150.10 311.26 146.90 C 310.04 143.56 310.43 138.77 313.70 136.74 C 317.25 135.69 321.02 136.57 324.62 137.05 C 330.75 139.49 336.91 141.93 343.30 143.62 C 348.11 144.76 353.51 145.37 358.08 143.02 C 361.10 141.37 362.18 137.31 360.66 134.27 C 357.55 126.84 349.89 123.09 345.15 116.91 C 342.00 113.25 340.15 108.75 338.45 104.29 C 339.59 103.24 340.64 101.97 342.12 101.38 C 344.06 101.48 345.90 102.17 347.75 102.73 C 352.26 106.36 356.72 110.05 361.10 113.84 C 363.91 116.24 367.54 118.50 371.41 117.52 C 377.58 116.07 382.68 112.08 388.25 109.26 C 403.38 101.33 421.69 99.04 438.14 103.89 C 454.12 108.64 466.35 122.43 470.82 138.28 C 472.90 150.44 470.27 163.61 462.23 173.18 C 458.10 178.53 452.17 181.97 446.36 185.20 C 435.11 188.33 422.59 187.78 412.41 181.66 C 409.86 178.52 407.04 175.57 404.94 172.10 C 401.90 166.51 402.42 159.90 403.26 153.83 C 406.13 153.47 409.46 152.62 411.98 154.56 C 414.06 157.64 415.36 161.29 418.03 163.95 C 420.94 166.25 424.67 167.13 428.17 168.14 C 434.06 169.74 440.52 168.66 445.88 165.84 C 448.88 164.23 449.53 160.59 450.37 157.60 C 451.97 150.58 451.71 143.22 450.39 136.18 C 449.32 128.95 443.42 123.94 437.23 120.87 C 428.32 115.52 417.12 116.73 407.56 119.51 C 394.55 123.18 384.29 132.97 377.00 144.02 C 371.66 152.31 369.33 162.68 371.65 172.37 C 373.69 180.89 377.17 189.12 382.07 196.39 C 384.74 200.98 387.51 205.51 390.55 209.86 C 395.10 218.51 401.35 226.09 407.01 234.01 C 413.23 242.01 418.78 250.83 426.90 257.09 C 431.73 260.92 438.27 260.91 444.08 259.98 C 465.69 256.60 487.04 248.94 504.36 235.31 C 517.82 225.13 527.76 210.33 531.87 193.95 C 535.94 178.37 534.92 161.78 530.49 146.39 C 525.67 129.81 517.70 114.23 507.71 100.18 C 490.83 76.09 466.51 57.26 438.89 47.12 C 431.55 44.37 424.10 41.74 416.32 40.54 C 412.99 40.07 409.54 39.24 406.21 40.11 C 404.67 47.90 408.21 55.62 407.87 63.49 C 407.19 64.45 406.52 65.42 405.86 66.38 C 403.29 65.45 400.92 64.04 398.91 62.19 C 392.56 56.53 386.78 50.25 380.45 44.57 C 375.70 40.30 369.25 38.40 362.94 38.59 C 352.45 38.86 342.04 40.31 331.68 41.89 C 319.57 42.93 307.71 46.22 296.28 50.25 C 288.59 53.04 281.48 57.12 273.94 60.23 C 277.59 57.17 282.14 55.56 286.33 53.41 C 300.61 46.82 315.31 40.55 330.98 38.25 Z" />
<path fill="#deb764" d=" M 331.68 41.89 C 342.04 40.31 352.45 38.86 362.94 38.59 C 369.25 38.40 375.70 40.30 380.45 44.57 C 386.78 50.25 392.56 56.53 398.91 62.19 C 400.92 64.04 403.29 65.45 405.86 66.38 C 407.92 66.26 410.56 66.82 412.01 64.94 C 412.87 63.51 413.16 61.84 413.55 60.24 C 412.75 55.29 411.46 50.41 411.32 45.38 C 415.38 45.73 419.46 46.24 423.32 47.63 C 451.11 56.91 476.52 74.31 493.88 98.06 C 505.01 113.14 511.30 132.22 509.00 151.01 C 506.22 176.71 489.28 199.34 467.32 212.23 C 452.83 221.51 434.81 222.76 418.12 221.05 C 410.50 219.69 402.33 217.90 396.48 212.48 C 390.86 206.79 386.64 199.92 382.00 193.45 C 375.60 181.65 371.73 167.39 375.99 154.22 C 380.20 141.28 391.20 132.25 402.12 124.97 C 408.76 120.59 416.77 118.47 424.71 119.17 C 434.98 121.73 443.27 128.68 450.39 136.18 C 451.71 143.22 451.97 150.58 450.37 157.60 C 446.86 160.17 443.31 163.06 438.91 163.83 C 432.82 165.08 426.63 163.52 420.75 161.99 C 417.81 159.52 415.10 156.79 411.98 154.56 C 409.46 152.62 406.13 153.47 403.26 153.83 C 400.82 154.77 397.86 156.13 397.53 159.08 C 395.90 169.10 403.85 177.79 412.41 181.66 C 422.59 187.78 435.11 188.33 446.36 185.20 C 456.50 183.62 464.76 175.92 468.66 166.65 C 474.83 152.41 477.39 136.47 475.76 121.02 C 475.02 113.39 472.16 105.79 466.54 100.41 C 458.67 92.55 448.46 87.54 438.11 83.79 C 423.03 78.57 407.01 75.99 391.05 76.40 C 378.96 76.64 366.52 78.76 355.93 84.88 C 350.49 88.23 344.74 92.10 338.03 91.60 C 321.62 90.42 306.92 79.63 290.13 81.41 C 283.82 82.59 277.66 85.63 273.06 90.12 C 273.08 92.66 276.26 93.06 278.07 94.00 C 291.35 98.32 305.16 100.90 318.34 105.54 C 321.70 106.90 326.31 108.75 326.51 112.97 C 325.94 117.44 323.73 121.56 321.19 125.22 C 317.84 130.00 312.10 132.20 306.62 133.46 C 290.39 136.99 273.59 135.97 257.34 139.35 C 246.64 141.40 236.26 145.25 227.02 151.04 C 217.57 156.92 208.50 163.60 197.99 167.52 C 197.33 167.05 196.00 166.12 195.33 165.66 C 198.45 152.01 203.07 138.70 209.78 126.39 C 212.84 122.03 215.66 117.52 218.66 113.14 C 222.97 110.32 227.77 108.17 231.45 104.49 C 237.50 98.46 242.20 91.22 246.37 83.80 C 249.32 80.93 252.39 78.18 255.73 75.77 C 272.87 63.25 292.00 53.39 312.30 47.17 C 318.68 45.12 325.27 43.84 331.68 41.89 Z" />
<path fill="#a06c14" d=" M 406.21 40.11 C 409.54 39.24 412.99 40.07 416.32 40.54 C 424.10 41.74 431.55 44.37 438.89 47.12 C 466.51 57.26 490.83 76.09 507.71 100.18 C 517.70 114.23 525.67 129.81 530.49 146.39 C 534.92 161.78 535.94 178.37 531.87 193.95 C 527.76 210.33 517.82 225.13 504.36 235.31 C 487.04 248.94 465.69 256.60 444.08 259.98 C 438.27 260.91 431.73 260.92 426.90 257.09 C 418.78 250.83 413.23 242.01 407.01 234.01 C 401.35 226.09 395.10 218.51 390.55 209.86 C 396.95 215.44 402.49 222.74 411.06 225.07 C 422.63 228.23 434.99 226.69 446.35 223.32 C 466.50 217.00 485.27 204.91 497.66 187.61 C 507.11 173.00 512.30 155.40 511.42 137.96 C 510.66 120.62 502.83 104.27 491.99 90.98 C 476.48 72.25 456.20 57.66 433.85 48.19 C 426.76 45.46 418.82 42.32 411.32 45.38 C 411.46 50.41 412.75 55.29 413.55 60.24 C 411.65 61.32 409.76 62.40 407.87 63.49 C 408.21 55.62 404.67 47.90 406.21 40.11 Z" />
<path fill="#a06c14" d=" M 296.28 50.25 C 307.71 46.22 319.57 42.93 331.68 41.89 C 325.27 43.84 318.68 45.12 312.30 47.17 C 292.00 53.39 272.87 63.25 255.73 75.77 C 252.39 78.18 249.32 80.93 246.37 83.80 C 243.52 85.77 240.63 87.71 238.20 90.18 C 231.10 97.29 223.76 104.39 218.66 113.14 C 215.66 117.52 212.84 122.03 209.78 126.39 C 210.72 123.84 211.66 121.28 213.10 118.96 C 218.30 110.41 224.20 102.27 230.86 94.80 C 234.80 90.34 239.34 86.45 243.17 81.89 C 244.84 80.02 246.78 78.43 248.77 76.92 C 256.75 70.79 264.95 64.80 273.94 60.23 C 281.48 57.12 288.59 53.04 296.28 50.25 Z" />
<path fill="#c18f24" d=" M 411.32 45.38 C 418.82 42.32 426.76 45.46 433.85 48.19 C 456.20 57.66 476.48 72.25 491.99 90.98 C 502.83 104.27 510.66 120.62 511.42 137.96 C 512.30 155.40 507.11 173.00 497.66 187.61 C 485.27 204.91 466.50 217.00 446.35 223.32 C 434.99 226.69 422.63 228.23 411.06 225.07 C 402.49 222.74 396.95 215.44 390.55 209.86 C 387.51 205.51 384.74 200.98 382.07 196.39 C 382.06 195.66 382.02 194.19 382.00 193.45 C 386.64 199.92 390.86 206.79 396.48 212.48 C 402.33 217.90 410.50 219.69 418.12 221.05 C 434.81 222.76 452.83 221.51 467.32 212.23 C 489.28 199.34 506.22 176.71 509.00 151.01 C 511.30 132.22 505.01 113.14 493.88 98.06 C 476.52 74.31 451.11 56.91 423.32 47.63 C 419.46 46.24 415.38 45.73 411.32 45.38 Z" />
<path fill="#c18f24" d=" M 407.87 63.49 C 409.76 62.40 411.65 61.32 413.55 60.24 C 413.16 61.84 412.87 63.51 412.01 64.94 C 410.56 66.82 407.92 66.26 405.86 66.38 C 406.52 65.42 407.19 64.45 407.87 63.49 Z" />
<path fill="#c18f24" d=" M 355.93 84.88 C 366.52 78.76 378.96 76.64 391.05 76.40 C 407.01 75.99 423.03 78.57 438.11 83.79 C 448.46 87.54 458.67 92.55 466.54 100.41 C 472.16 105.79 475.02 113.39 475.76 121.02 C 477.39 136.47 474.83 152.41 468.66 166.65 C 464.76 175.92 456.50 183.62 446.36 185.20 C 452.17 181.97 458.10 178.53 462.23 173.18 C 470.27 163.61 472.90 150.44 470.82 138.28 C 470.52 129.81 467.92 121.20 462.26 114.75 C 456.44 107.88 447.98 104.04 439.58 101.34 C 429.62 98.13 418.73 95.04 408.40 98.49 C 397.15 102.23 387.31 109.28 376.09 113.12 C 372.89 114.16 369.16 114.63 366.12 112.86 C 362.20 110.60 359.47 106.69 355.35 104.71 C 352.95 103.63 350.29 103.33 347.75 102.73 C 345.90 102.17 344.06 101.48 342.12 101.38 C 340.64 101.97 339.59 103.24 338.45 104.29 C 337.27 105.94 334.43 107.67 335.90 109.96 C 341.27 119.01 350.80 125.12 355.32 134.76 C 356.76 137.60 353.50 139.39 351.04 139.32 C 342.16 139.90 333.47 137.27 324.62 137.05 C 321.02 136.57 317.25 135.69 313.70 136.74 C 310.43 138.77 310.04 143.56 311.26 146.90 C 312.35 150.10 315.68 151.47 318.49 152.79 C 326.17 157.89 335.62 159.42 343.06 164.92 C 347.80 168.33 352.65 172.82 353.25 178.99 C 353.71 181.39 353.25 184.53 350.62 185.45 C 343.26 188.23 335.22 186.90 327.58 188.14 C 321.32 187.80 314.82 186.86 308.71 188.69 C 303.29 190.82 303.57 198.95 308.42 201.58 C 313.37 204.09 319.11 204.01 324.50 204.76 C 334.57 207.75 345.30 207.97 355.14 211.85 C 361.37 213.95 366.70 217.88 372.34 221.12 C 377.94 226.63 383.05 232.60 388.12 238.58 C 389.24 240.98 390.19 243.46 391.14 245.93 C 382.37 248.89 373.04 248.64 363.93 249.25 C 351.72 249.96 339.83 253.02 328.05 256.13 C 330.22 253.21 331.55 249.64 330.65 245.97 C 328.85 236.10 324.74 226.84 321.43 217.41 C 319.49 212.52 317.06 206.12 311.01 205.47 C 303.03 205.09 295.65 208.79 288.33 211.45 C 265.54 220.09 245.91 235.73 230.55 254.47 C 221.78 264.99 215.01 276.93 207.66 288.42 C 203.05 277.77 199.13 266.80 196.38 255.52 C 199.84 254.11 203.16 252.31 206.02 249.87 C 225.11 234.46 239.99 213.77 261.92 201.97 C 274.47 194.94 288.83 192.67 302.34 188.23 C 307.46 186.38 313.59 183.99 315.31 178.25 C 316.79 172.35 316.74 166.08 315.69 160.11 C 315.26 157.13 312.84 154.75 309.92 154.17 C 304.38 152.91 298.63 153.08 292.98 152.90 C 264.15 152.68 235.79 164.34 214.27 183.29 C 202.32 194.09 191.54 208.44 191.64 225.28 C 190.46 214.99 190.23 204.57 191.16 194.25 C 191.77 184.63 192.89 175.00 195.33 165.66 C 196.00 166.12 197.33 167.05 197.99 167.52 C 208.50 163.60 217.57 156.92 227.02 151.04 C 236.26 145.25 246.64 141.40 257.34 139.35 C 273.59 135.97 290.39 136.99 306.62 133.46 C 312.10 132.20 317.84 130.00 321.19 125.22 C 323.73 121.56 325.94 117.44 326.51 112.97 C 326.31 108.75 321.70 106.90 318.34 105.54 C 305.16 100.90 291.35 98.32 278.07 94.00 C 276.26 93.06 273.08 92.66 273.06 90.12 C 277.66 85.63 283.82 82.59 290.13 81.41 C 306.92 79.63 321.62 90.42 338.03 91.60 C 344.74 92.10 350.49 88.23 355.93 84.88 Z" />
<path fill="#754016" d=" M 233.80 89.87 C 236.72 86.99 239.43 83.75 243.17 81.89 C 239.34 86.45 234.80 90.34 230.86 94.80 C 224.20 102.27 218.30 110.41 213.10 118.96 C 211.66 121.28 210.72 123.84 209.78 126.39 C 203.07 138.70 198.45 152.01 195.33 165.66 C 192.89 175.00 191.77 184.63 191.16 194.25 C 190.23 204.57 190.46 214.99 191.64 225.28 C 192.75 235.42 194.28 245.53 196.38 255.52 C 199.13 266.80 203.05 277.77 207.66 288.42 C 212.02 298.72 217.04 308.74 222.64 318.42 C 222.81 319.12 223.15 320.51 223.33 321.21 C 220.12 318.04 218.08 313.98 215.74 310.18 C 199.77 283.17 190.87 252.23 188.94 220.96 C 186.89 188.31 191.79 154.48 207.35 125.38 C 214.37 112.34 223.23 100.25 233.80 89.87 Z" />
<path fill="#c18f24" d=" M 238.20 90.18 C 240.63 87.71 243.52 85.77 246.37 83.80 C 242.20 91.22 237.50 98.46 231.45 104.49 C 227.77 108.17 222.97 110.32 218.66 113.14 C 223.76 104.39 231.10 97.29 238.20 90.18 Z" />
<path fill="#a06c14" d=" M 408.40 98.49 C 418.73 95.04 429.62 98.13 439.58 101.34 C 447.98 104.04 456.44 107.88 462.26 114.75 C 467.92 121.20 470.52 129.81 470.82 138.28 C 466.35 122.43 454.12 108.64 438.14 103.89 C 421.69 99.04 403.38 101.33 388.25 109.26 C 382.68 112.08 377.58 116.07 371.41 117.52 C 367.54 118.50 363.91 116.24 361.10 113.84 C 356.72 110.05 352.26 106.36 347.75 102.73 C 350.29 103.33 352.95 103.63 355.35 104.71 C 359.47 106.69 362.20 110.60 366.12 112.86 C 369.16 114.63 372.89 114.16 376.09 113.12 C 387.31 109.28 397.15 102.23 408.40 98.49 Z" />
<path fill="#a06c14" d=" M 335.90 109.96 C 334.43 107.67 337.27 105.94 338.45 104.29 C 340.15 108.75 342.00 113.25 345.15 116.91 C 349.89 123.09 357.55 126.84 360.66 134.27 C 362.18 137.31 361.10 141.37 358.08 143.02 C 353.51 145.37 348.11 144.76 343.30 143.62 C 336.91 141.93 330.75 139.49 324.62 137.05 C 333.47 137.27 342.16 139.90 351.04 139.32 C 353.50 139.39 356.76 137.60 355.32 134.76 C 350.80 125.12 341.27 119.01 335.90 109.96 Z" />
<path fill="#a06c14" d=" M 407.56 119.51 C 417.12 116.73 428.32 115.52 437.23 120.87 C 433.14 119.81 428.93 119.30 424.71 119.17 C 416.77 118.47 408.76 120.59 402.12 124.97 C 391.20 132.25 380.20 141.28 375.99 154.22 C 371.73 167.39 375.60 181.65 382.00 193.45 C 382.02 194.19 382.06 195.66 382.07 196.39 C 377.17 189.12 373.69 180.89 371.65 172.37 C 369.33 162.68 371.66 152.31 377.00 144.02 C 384.29 132.97 394.55 123.18 407.56 119.51 Z" />
<path fill="#c18f24" d=" M 424.71 119.17 C 428.93 119.30 433.14 119.81 437.23 120.87 C 443.42 123.94 449.32 128.95 450.39 136.18 C 443.27 128.68 434.98 121.73 424.71 119.17 Z" />
<path fill="#a06c14" d=" M 177.64 122.01 C 180.22 121.56 182.86 121.30 185.48 121.59 C 185.95 127.09 183.90 132.38 182.38 137.57 C 177.88 150.50 174.36 163.81 172.61 177.40 C 172.20 180.20 171.43 182.94 170.70 185.68 C 170.26 171.35 175.73 157.81 178.27 143.90 C 179.77 137.48 181.22 131.02 181.52 124.41 C 175.03 125.74 169.35 129.22 163.83 132.69 C 161.58 133.95 159.22 134.96 156.89 136.06 C 157.71 135.02 158.49 133.96 159.31 132.93 C 164.85 128.49 171.24 125.06 177.64 122.01 Z" />
<path fill="#deb764" d=" M 163.83 132.69 C 169.35 129.22 175.03 125.74 181.52 124.41 C 181.22 131.02 179.77 137.48 178.27 143.90 C 175.66 145.21 172.81 147.59 169.73 146.30 C 166.90 145.00 164.48 142.57 163.39 139.64 C 163.11 137.32 163.58 134.99 163.83 132.69 Z" />
<path fill="#754016" d=" M 153.75 135.77 C 155.46 134.56 157.35 133.64 159.31 132.93 C 158.49 133.96 157.71 135.02 156.89 136.06 C 149.40 141.76 142.62 148.37 136.35 155.39 C 132.42 159.73 129.89 165.11 127.94 170.58 C 125.88 175.83 124.44 181.29 122.77 186.66 C 122.38 181.03 123.52 175.46 124.20 169.90 C 125.09 164.84 125.52 159.16 129.37 155.33 C 136.60 147.78 145.18 141.70 153.75 135.77 Z" />
<path fill="#c18f24" d=" M 156.89 136.06 C 159.22 134.96 161.58 133.95 163.83 132.69 C 163.58 134.99 163.11 137.32 163.39 139.64 C 164.48 142.57 166.90 145.00 169.73 146.30 C 172.81 147.59 175.66 145.21 178.27 143.90 C 175.73 157.81 170.26 171.35 170.70 185.68 C 170.58 190.15 170.24 194.62 169.80 199.07 C 169.11 206.56 169.80 214.06 170.43 221.52 C 170.23 224.64 169.99 227.79 170.34 230.91 C 174.06 263.90 183.72 296.32 199.47 325.58 C 209.38 343.77 221.78 360.90 237.72 374.29 C 245.04 380.38 253.07 385.99 262.31 388.71 C 276.45 393.08 291.29 394.54 306.01 395.28 C 323.71 395.75 341.68 395.20 358.89 390.67 C 372.51 387.10 383.94 378.39 394.55 369.49 C 408.92 356.86 421.82 342.62 433.57 327.53 C 442.72 316.18 450.62 303.33 462.73 294.82 C 467.46 291.35 473.40 290.66 479.08 290.35 C 489.45 289.71 499.31 286.21 509.13 283.07 C 512.05 282.01 515.40 282.01 517.60 284.51 C 515.85 289.77 514.00 295.51 509.38 298.99 C 507.41 300.07 505.31 301.03 503.73 302.68 C 494.24 312.54 489.52 325.65 481.94 336.84 C 476.79 344.71 470.80 352.26 463.09 357.77 C 463.26 352.11 458.18 348.26 453.35 346.56 C 446.96 344.66 439.46 345.11 433.88 349.00 C 430.75 351.15 430.96 355.59 432.56 358.63 C 434.27 362.07 438.05 363.61 441.41 364.96 C 430.33 366.08 420.91 372.60 412.88 379.88 C 399.80 391.81 387.79 404.84 375.70 417.76 C 368.19 425.17 361.17 433.24 352.39 439.20 C 353.16 436.11 354.56 432.45 352.23 429.66 C 348.77 425.09 342.03 425.56 337.13 427.12 C 329.94 429.50 325.75 439.16 330.78 445.44 C 318.45 445.67 305.99 445.85 293.86 443.31 C 274.32 439.76 255.44 430.81 241.68 416.27 C 233.72 408.22 228.38 398.16 222.21 388.78 C 213.75 376.04 204.69 363.71 195.51 351.48 C 174.88 325.26 153.21 299.18 139.66 268.38 C 130.33 247.58 125.71 224.75 126.10 201.96 C 125.93 191.46 127.13 181.03 127.94 170.58 C 129.89 165.11 132.42 159.73 136.35 155.39 C 142.62 148.37 149.40 141.76 156.89 136.06 Z" />
<path fill="#deb764" d=" M 214.27 183.29 C 235.79 164.34 264.15 152.68 292.98 152.90 C 298.63 153.08 304.38 152.91 309.92 154.17 C 312.84 154.75 315.26 157.13 315.69 160.11 C 316.74 166.08 316.79 172.35 315.31 178.25 C 313.59 183.99 307.46 186.38 302.34 188.23 C 288.83 192.67 274.47 194.94 261.92 201.97 C 239.99 213.77 225.11 234.46 206.02 249.87 C 203.16 252.31 199.84 254.11 196.38 255.52 C 194.28 245.53 192.75 235.42 191.64 225.28 C 191.54 208.44 202.32 194.09 214.27 183.29 Z" />
<path fill="#a06c14" d=" M 318.49 152.79 C 330.32 152.23 340.98 158.88 349.23 166.75 C 354.12 171.62 358.37 178.79 356.06 185.87 C 355.23 188.90 351.69 189.58 349.01 189.95 C 341.83 190.49 334.66 189.25 327.58 188.14 C 335.22 186.90 343.26 188.23 350.62 185.45 C 353.25 184.53 353.71 181.39 353.25 178.99 C 352.65 172.82 347.80 168.33 343.06 164.92 C 335.62 159.42 326.17 157.89 318.49 152.79 Z" />
<path fill="#a06c14" d=" M 397.53 159.08 C 397.86 156.13 400.82 154.77 403.26 153.83 C 402.42 159.90 401.90 166.51 404.94 172.10 C 407.04 175.57 409.86 178.52 412.41 181.66 C 403.85 177.79 395.90 169.10 397.53 159.08 Z" />
<path fill="#a06c14" d=" M 411.98 154.56 C 415.10 156.79 417.81 159.52 420.75 161.99 C 423.15 164.11 425.53 166.29 428.17 168.14 C 424.67 167.13 420.94 166.25 418.03 163.95 C 415.36 161.29 414.06 157.64 411.98 154.56 Z" />
<path fill="#c18f24" d=" M 438.91 163.83 C 443.31 163.06 446.86 160.17 450.37 157.60 C 449.53 160.59 448.88 164.23 445.88 165.84 C 440.52 168.66 434.06 169.74 428.17 168.14 C 425.53 166.29 423.15 164.11 420.75 161.99 C 426.63 163.52 432.82 165.08 438.91 163.83 Z" />
<path fill="#a06c14" d=" M 122.77 186.66 C 124.44 181.29 125.88 175.83 127.94 170.58 C 127.13 181.03 125.93 191.46 126.10 201.96 C 125.71 224.75 130.33 247.58 139.66 268.38 C 153.21 299.18 174.88 325.26 195.51 351.48 C 204.69 363.71 213.75 376.04 222.21 388.78 C 228.38 398.16 233.72 408.22 241.68 416.27 C 255.44 430.81 274.32 439.76 293.86 443.31 C 305.99 445.85 318.45 445.67 330.78 445.44 C 338.40 445.46 346.14 443.74 352.39 439.20 C 361.17 433.24 368.19 425.17 375.70 417.76 C 387.79 404.84 399.80 391.81 412.88 379.88 C 420.91 372.60 430.33 366.08 441.41 364.96 C 449.30 365.36 456.83 362.42 463.09 357.77 C 470.80 352.26 476.79 344.71 481.94 336.84 C 489.52 325.65 494.24 312.54 503.73 302.68 C 505.31 301.03 507.41 300.07 509.38 298.99 C 503.84 306.02 498.64 313.33 494.01 321.00 C 489.32 328.59 485.32 336.65 479.63 343.57 C 470.49 355.08 458.76 365.31 444.42 369.51 C 438.44 371.39 431.51 370.26 426.29 374.27 C 402.69 390.64 384.61 413.31 363.89 432.91 C 354.53 441.27 343.99 449.97 330.95 451.02 C 319.49 451.77 307.88 450.49 296.86 447.24 C 286.17 444.09 275.36 441.20 265.10 436.81 C 256.47 433.17 248.82 427.35 242.74 420.26 C 235.43 411.77 228.82 402.71 222.41 393.53 C 207.59 372.12 192.56 350.86 176.90 330.06 C 167.08 317.09 156.69 304.46 148.52 290.34 C 139.02 274.00 130.91 256.63 126.57 238.15 C 124.71 230.22 122.67 222.25 122.41 214.07 C 122.26 208.97 121.92 203.87 121.70 198.77 C 121.89 194.73 122.22 190.67 122.77 186.66 Z" />
<path fill="#deb764" d=" M 149.43 184.49 C 155.73 183.21 163.46 186.17 165.42 192.70 C 166.06 196.43 162.54 199.22 159.56 200.68 C 153.36 203.52 145.99 204.60 139.43 202.45 C 135.64 201.19 134.02 196.48 135.98 193.08 C 138.81 188.34 144.10 185.44 149.43 184.49 Z" />
<path fill="#754016" d=" M 120.31 227.99 C 120.73 218.25 120.17 208.44 121.70 198.77 C 121.92 203.87 122.26 208.97 122.41 214.07 C 122.67 222.25 124.71 230.22 126.57 238.15 C 130.91 256.63 139.02 274.00 148.52 290.34 C 156.69 304.46 167.08 317.09 176.90 330.06 C 192.56 350.86 207.59 372.12 222.41 393.53 C 228.82 402.71 235.43 411.77 242.74 420.26 C 248.82 427.35 256.47 433.17 265.10 436.81 C 275.36 441.20 286.17 444.09 296.86 447.24 C 307.88 450.49 319.49 451.77 330.95 451.02 C 343.99 449.97 354.53 441.27 363.89 432.91 C 384.61 413.31 402.69 390.64 426.29 374.27 C 431.51 370.26 438.44 371.39 444.42 369.51 C 458.76 365.31 470.49 355.08 479.63 343.57 C 485.32 336.65 489.32 328.59 494.01 321.00 C 498.64 313.33 503.84 306.02 509.38 298.99 C 514.00 295.51 515.85 289.77 517.60 284.51 C 519.21 278.30 518.92 270.70 524.23 266.21 C 526.19 264.35 528.98 265.94 530.21 267.85 C 534.32 273.58 533.17 281.09 535.49 287.47 C 535.95 288.92 537.28 290.34 538.97 289.98 C 544.34 289.42 549.33 287.12 554.42 285.44 C 559.10 283.66 564.11 282.32 568.17 279.26 C 570.94 277.29 571.59 273.76 572.29 270.67 C 574.57 257.94 575.75 243.90 568.89 232.29 C 565.00 224.72 558.22 219.35 552.90 212.86 C 558.46 215.38 562.62 220.14 566.08 225.03 C 572.02 233.57 574.79 243.78 576.70 253.88 C 582.20 285.23 575.91 316.84 572.42 348.02 C 572.18 349.38 572.11 351.07 570.60 351.66 C 559.39 357.87 547.77 363.39 536.63 369.76 C 529.03 374.10 521.48 379.37 517.11 387.18 C 512.56 395.37 510.95 404.73 508.43 413.65 C 506.30 421.09 504.92 429.00 500.56 435.56 C 499.11 437.84 496.61 439.35 493.91 439.53 C 487.65 440.11 481.20 439.97 475.24 442.24 C 463.03 446.64 452.46 454.48 442.43 462.53 C 434.26 468.97 426.95 476.49 418.28 482.28 C 405.62 490.75 392.18 498.60 377.27 502.29 C 356.23 507.72 334.69 511.41 312.98 512.64 C 302.82 512.91 292.20 513.53 282.67 509.32 C 270.52 504.01 260.48 495.03 250.86 486.11 C 235.45 471.52 221.24 455.72 207.64 439.44 C 187.97 415.77 169.43 391.10 152.83 365.17 C 142.09 348.14 132.10 330.43 125.63 311.30 C 120.05 294.80 120.22 277.20 119.77 260.01 C 119.53 249.33 120.36 238.67 120.31 227.99 Z" />
<path fill="#a06c14" d=" M 324.50 204.76 C 333.00 204.41 341.64 204.07 350.00 205.91 C 359.06 207.90 366.83 213.82 372.34 221.12 C 366.70 217.88 361.37 213.95 355.14 211.85 C 345.30 207.97 334.57 207.75 324.50 204.76 Z" />
<path fill="#deb764" d=" M 288.33 211.45 C 295.65 208.79 303.03 205.09 311.01 205.47 C 317.06 206.12 319.49 212.52 321.43 217.41 C 324.74 226.84 328.85 236.10 330.65 245.97 C 331.55 249.64 330.22 253.21 328.05 256.13 C 320.28 258.34 312.52 260.76 305.26 264.36 C 292.89 270.37 280.84 277.36 270.60 286.62 C 263.96 292.62 257.68 299.02 251.56 305.54 C 244.49 313.88 238.53 323.11 231.05 331.11 C 228.34 326.82 225.69 322.48 222.64 318.42 C 217.04 308.74 212.02 298.72 207.66 288.42 C 215.01 276.93 221.78 264.99 230.55 254.47 C 245.91 235.73 265.54 220.09 288.33 211.45 Z" />
<path fill="#a06c14" d=" M 548.13 214.15 C 548.91 212.86 550.18 212.06 551.60 211.61 C 551.92 211.92 552.58 212.55 552.90 212.86 C 558.22 219.35 565.00 224.72 568.89 232.29 C 566.43 233.55 563.91 234.90 562.20 237.14 C 556.92 243.70 552.43 250.85 548.02 258.00 C 544.34 264.26 540.51 270.71 539.19 277.94 C 538.66 280.68 538.95 284.77 542.24 285.57 C 549.03 286.70 555.44 283.28 561.36 280.42 C 565.88 278.32 569.45 274.70 572.29 270.67 C 571.59 273.76 570.94 277.29 568.17 279.26 C 564.11 282.32 559.10 283.66 554.42 285.44 C 549.33 287.12 544.34 289.42 538.97 289.98 C 537.28 290.34 535.95 288.92 535.49 287.47 C 533.17 281.09 534.32 273.58 530.21 267.85 C 528.98 265.94 526.19 264.35 524.23 266.21 C 518.92 270.70 519.21 278.30 517.60 284.51 C 515.40 282.01 512.05 282.01 509.13 283.07 C 499.31 286.21 489.45 289.71 479.08 290.35 C 473.40 290.66 467.46 291.35 462.73 294.82 C 450.62 303.33 442.72 316.18 433.57 327.53 C 421.82 342.62 408.92 356.86 394.55 369.49 C 383.94 378.39 372.51 387.10 358.89 390.67 C 341.68 395.20 323.71 395.75 306.01 395.28 C 291.29 394.54 276.45 393.08 262.31 388.71 C 253.07 385.99 245.04 380.38 237.72 374.29 C 221.78 360.90 209.38 343.77 199.47 325.58 C 183.72 296.32 174.06 263.90 170.34 230.91 C 169.99 227.79 170.23 224.64 170.43 221.52 C 171.90 230.54 172.55 239.68 174.46 248.64 C 178.44 270.18 185.82 290.97 195.40 310.64 C 202.88 325.83 210.81 341.12 222.20 353.80 C 225.64 357.77 228.36 362.29 231.46 366.53 C 235.79 366.30 240.21 366.20 244.41 367.46 C 255.06 370.64 266.34 369.97 277.29 369.33 C 306.78 366.23 335.06 355.79 361.30 342.30 C 377.29 333.95 392.52 324.00 406.09 312.10 C 417.20 301.50 427.21 289.23 441.04 281.98 C 447.85 278.28 455.91 279.32 463.13 276.96 C 476.59 272.81 489.31 266.55 501.38 259.35 C 512.56 252.58 523.52 245.16 532.70 235.77 C 538.99 229.44 543.01 221.37 548.13 214.15 Z" />
<path fill="#c18f24" d=" M 562.20 237.14 C 563.91 234.90 566.43 233.55 568.89 232.29 C 575.75 243.90 574.57 257.94 572.29 270.67 C 569.45 274.70 565.88 278.32 561.36 280.42 C 555.44 283.28 549.03 286.70 542.24 285.57 C 538.95 284.77 538.66 280.68 539.19 277.94 C 540.51 270.71 544.34 264.26 548.02 258.00 C 552.43 250.85 556.92 243.70 562.20 237.14 Z" />
<path fill="#deb764" d=" M 143.29 234.39 C 147.62 233.24 152.44 232.78 156.70 234.43 C 160.00 235.77 161.01 239.80 160.13 242.99 C 158.78 250.78 150.56 255.97 142.97 255.33 C 136.58 254.78 131.79 247.24 134.49 241.31 C 136.04 237.70 139.67 235.50 143.29 234.39 Z" />
<path fill="#a06c14" d=" M 388.12 238.58 C 391.71 242.25 395.12 246.17 397.26 250.89 C 389.30 252.84 381.08 252.25 373.00 251.66 C 357.03 250.56 341.22 254.30 326.17 259.33 C 310.17 264.93 294.69 272.24 280.66 281.82 C 269.32 289.57 259.72 299.58 251.20 310.29 C 246.13 316.97 241.50 323.97 236.65 330.80 C 235.51 332.88 233.04 332.58 231.03 332.68 C 228.54 328.81 225.31 325.38 223.33 321.21 C 223.15 320.51 222.81 319.12 222.64 318.42 C 225.69 322.48 228.34 326.82 231.05 331.11 C 238.53 323.11 244.49 313.88 251.56 305.54 C 257.68 299.02 263.96 292.62 270.60 286.62 C 280.84 277.36 292.89 270.37 305.26 264.36 C 312.52 260.76 320.28 258.34 328.05 256.13 C 339.83 253.02 351.72 249.96 363.93 249.25 C 373.04 248.64 382.37 248.89 391.14 245.93 C 390.19 243.46 389.24 240.98 388.12 238.58 Z" />
<path fill="#23120d" d=" M 412.16 251.07 C 414.41 249.41 417.37 251.22 418.94 253.06 C 423.57 258.50 426.12 265.47 427.45 272.42 C 427.97 277.13 428.58 282.48 425.63 286.57 C 424.19 288.75 421.85 291.13 418.97 290.39 C 415.31 289.10 413.35 285.41 411.93 282.07 C 409.10 274.77 407.77 266.78 408.69 258.97 C 409.13 256.14 409.85 253.00 412.16 251.07 Z" />
<path fill="#a06c14" d=" M 310.33 284.19 C 328.84 275.00 349.20 268.78 370.00 268.79 C 379.43 269.30 388.89 270.91 397.77 274.20 C 401.32 275.59 405.54 277.93 405.66 282.26 C 405.62 286.50 403.15 290.31 400.62 293.55 C 399.20 295.25 396.59 297.38 394.43 295.63 C 390.24 292.82 386.86 288.68 381.90 287.12 C 369.92 282.90 356.85 284.79 344.79 287.68 C 318.31 294.65 294.00 309.30 274.97 328.95 C 268.91 334.91 263.12 341.31 255.93 345.96 C 254.36 347.13 252.37 347.29 250.50 347.50 C 250.31 342.30 253.01 337.72 255.42 333.32 C 267.56 311.34 288.30 295.44 310.33 284.19 Z" />
<path fill="#a06c14" d=" M 122.77 288.60 C 126.69 291.30 129.01 295.55 131.66 299.37 C 146.14 321.48 162.26 342.46 178.85 363.01 C 177.84 362.76 176.84 362.51 175.83 362.26 C 174.17 367.66 173.24 373.33 173.78 378.98 C 174.38 386.45 177.53 393.35 180.23 400.24 C 177.74 398.16 175.95 395.44 174.21 392.75 C 164.07 377.81 154.04 362.79 144.63 347.38 C 135.67 332.89 128.92 317.04 124.52 300.59 C 123.46 296.68 122.68 292.67 122.77 288.60 Z" />
<path fill="#a06c14" d=" M 532.42 308.58 C 537.69 307.52 544.13 306.88 548.64 310.38 C 552.11 315.17 552.19 321.62 551.79 327.29 C 550.98 322.52 550.96 317.15 547.73 313.23 C 545.09 310.00 540.47 309.85 536.68 310.56 C 530.44 311.87 524.48 314.30 518.68 316.91 C 521.50 312.00 527.34 310.17 532.42 308.58 Z" />
<path fill="#c18f24" d=" M 536.68 310.56 C 540.47 309.85 545.09 310.00 547.73 313.23 C 550.96 317.15 550.98 322.52 551.79 327.29 C 552.61 333.56 551.99 339.87 551.52 346.14 C 551.11 351.39 549.38 356.76 545.59 360.56 C 539.99 366.24 532.73 369.78 526.01 373.90 C 521.57 376.32 517.52 379.52 512.67 381.13 C 512.40 374.08 511.39 367.07 511.43 360.01 C 511.62 353.65 510.35 347.32 511.28 340.99 C 511.49 332.60 512.54 323.20 518.68 316.91 C 524.48 314.30 530.44 311.87 536.68 310.56 Z" />
<path fill="#deb764" d=" M 433.88 349.00 C 439.46 345.11 446.96 344.66 453.35 346.56 C 458.18 348.26 463.26 352.11 463.09 357.77 C 456.83 362.42 449.30 365.36 441.41 364.96 C 438.05 363.61 434.27 362.07 432.56 358.63 C 430.96 355.59 430.75 351.15 433.88 349.00 Z" />
<path fill="#c18f24" d=" M 175.83 362.26 C 176.84 362.51 177.84 362.76 178.85 363.01 C 187.67 374.39 197.09 385.60 203.08 398.81 C 205.86 405.09 207.97 412.01 207.06 418.95 C 205.65 420.38 204.33 422.67 201.99 422.35 C 198.45 421.59 195.64 419.09 192.90 416.87 C 188.31 411.65 183.77 406.23 180.23 400.24 C 177.53 393.35 174.38 386.45 173.78 378.98 C 173.24 373.33 174.17 367.66 175.83 362.26 Z" />
<path fill="#a06c14" d=" M 437.77 389.98 C 443.30 385.25 451.05 384.45 458.05 384.26 C 461.81 383.99 464.59 387.18 465.52 390.53 C 468.38 399.41 469.54 408.73 470.85 417.94 C 471.29 422.57 472.22 427.35 471.05 431.94 C 469.69 435.93 467.48 439.86 463.88 442.22 C 470.12 429.66 467.53 415.26 466.41 401.89 C 465.82 397.43 465.53 392.70 463.23 388.72 C 461.43 385.85 457.59 386.25 454.69 386.52 C 448.99 387.37 443.35 388.58 437.77 389.98 Z" />
<path fill="#c18f24" d=" M 454.69 386.52 C 457.59 386.25 461.43 385.85 463.23 388.72 C 465.53 392.70 465.82 397.43 466.41 401.89 C 467.53 415.26 470.12 429.66 463.88 442.22 C 460.41 446.40 455.41 448.77 450.93 451.65 C 444.46 449.09 443.02 441.76 441.05 435.88 C 438.06 424.96 434.88 414.05 432.81 402.91 C 431.98 399.26 432.76 395.55 433.75 392.02 C 435.07 391.32 436.38 390.57 437.77 389.98 C 443.35 388.58 448.99 387.37 454.69 386.52 Z" />
<path fill="#a06c14" d=" M 427.31 396.74 C 429.36 395.04 431.52 393.48 433.75 392.02 C 432.76 395.55 431.98 399.26 432.81 402.91 C 434.88 414.05 438.06 424.96 441.05 435.88 C 443.02 441.76 444.46 449.09 450.93 451.65 C 449.14 451.59 447.05 451.78 445.84 450.16 C 443.29 447.02 441.99 443.09 440.52 439.38 C 435.59 425.34 431.00 411.17 427.31 396.74 Z" />
<path fill="#deb764" d=" M 289.34 412.50 C 294.68 412.54 300.84 414.64 303.32 419.75 C 304.89 424.45 301.25 429.09 297.21 431.11 C 291.95 433.81 284.59 434.33 280.15 429.84 C 276.83 426.60 277.22 421.20 279.63 417.54 C 281.68 414.27 285.60 412.66 289.34 412.50 Z" />
<path fill="#a06c14" d=" M 192.90 416.87 C 195.64 419.09 198.45 421.59 201.99 422.35 C 204.33 422.67 205.65 420.38 207.06 418.95 C 207.49 423.69 206.86 428.44 205.90 433.08 C 201.34 427.88 196.42 422.86 192.90 416.87 Z" />
<path fill="#deb764" d=" M 337.13 427.12 C 342.03 425.56 348.77 425.09 352.23 429.66 C 354.56 432.45 353.16 436.11 352.39 439.20 C 346.14 443.74 338.40 445.46 330.78 445.44 C 325.75 439.16 329.94 429.50 337.13 427.12 Z" />
<path fill="#a06c14" d=" M 352.82 475.89 C 355.49 466.12 362.72 458.33 371.21 453.14 C 372.86 455.05 373.75 457.45 373.67 459.99 C 373.84 471.68 374.97 483.58 372.46 495.12 C 371.70 499.42 368.63 503.28 364.04 503.64 C 360.14 504.01 353.50 507.61 351.96 501.97 C 349.74 493.46 350.40 484.29 352.82 475.89 Z" />
<path fill="#a06c14" d=" M 251.50 462.61 C 252.40 459.52 254.11 455.57 257.95 455.67 C 265.89 455.87 273.44 458.73 281.00 460.87 C 286.77 462.75 292.91 464.40 297.65 468.38 C 302.01 472.29 302.79 478.51 303.53 483.99 C 304.37 490.74 305.04 497.92 302.36 504.36 C 301.54 506.06 300.18 508.18 297.98 507.76 C 288.83 507.27 279.54 505.39 271.63 500.57 C 274.57 498.33 274.46 494.35 274.96 491.04 C 275.66 483.48 276.00 475.76 274.64 468.25 C 273.54 461.78 267.02 456.38 260.38 457.44 C 255.93 458.40 253.74 463.14 253.45 467.30 C 252.78 476.69 257.14 485.49 262.25 493.07 C 257.91 490.44 254.58 486.58 250.92 483.16 C 249.84 481.92 248.19 480.80 248.23 478.99 C 248.10 473.37 250.06 467.97 251.50 462.61 Z" />
<path fill="#c18f24" d=" M 260.38 457.44 C 267.02 456.38 273.54 461.78 274.64 468.25 C 276.00 475.76 275.66 483.48 274.96 491.04 C 274.46 494.35 274.57 498.33 271.63 500.57 C 268.44 498.16 264.79 496.21 262.25 493.07 C 257.14 485.49 252.78 476.69 253.45 467.30 C 253.74 463.14 255.93 458.40 260.38 457.44 Z" />
</svg>
